<svg
    width="24"
    height="24"
    viewBox="0 0 24 24"
    fill="none"
    xmlns="http://www.w3.org/2000/svg">
    <path
        fill-rule="evenodd"
        clip-rule="evenodd"
        d="M18.5 1.25C18.9142 1.25 19.25 1.58579 19.25 2
       V4.75H22C22.4142 4.75 22.75 5.08579 22.75 5.5
       C22.75 5.91421 22.4142 6.25 22 6.25
       H19.25V9C19.25 9.41421 18.9142 9.75 18.5 9.75
       C18.0858 9.75 17.75 9.41421 17.75 9
       V6.25H15
       C14.5858 6.25 14.25 5.91421 14.25 5.5
       C14.25 5.08579 14.5858 4.75 15 4.75
       H17.75
       V2
       C17.75 1.58579 18.0858 1.25 18.5 1.25
       Z"
        fill="#EFEFEF"
    />
    <path
        fill-rule="evenodd"
        clip-rule="evenodd"
        d="M12 1.25
       L11.9426 1.25
       C9.63423 1.24999 7.82519 1.24998 6.41371 1.43975
       C4.96897 1.63399 3.82895 2.03933 2.93414 2.93414
       C2.03933 3.82895 1.63399 4.96897 1.43975 6.41371
       C1.24998 7.82519 1.24999 9.63423 1.25 11.9426
       V12.0574
       C1.24999 14.3658 1.24998 16.1748 1.43975 17.5863
       C1.63399 19.031 2.03933 20.1711 2.93414 21.0659
       C3.82895 21.9607 4.96897 22.366 6.41371 22.5603
       C7.82519 22.75 9.63423 22.75 11.9426 22.75
       H12.0574
       C14.3658 22.75 16.1748 22.75 17.5863 22.5603
       C19.031 22.366 20.1711 21.9607 21.0659 21.0659
       C21.9607 20.1711 22.366 19.031 22.5603 17.5863
       C22.75 16.1748 22.75 14.3658 22.75 12.0574
       V12
       C22.75 11.5858 22.4142 11.25 22 11.25
       C21.5858 11.25 21.25 11.5858 21.25 12
       C21.25 14.3782 21.2484 16.0864 21.0736 17.3864
       C21.0667 17.4377 21.0596 17.4882 21.0522 17.5378
       L18.2782 15.0412
       C16.9788 13.8718 15.0437 13.7553 13.6134 14.7605
       L13.3152 14.9701
       C12.8182 15.3193 12.1421 15.2608 11.7125 14.8313
       L7.42282 10.5415
       C6.28741 9.40612 4.46613 9.34547 3.25771 10.4028
       L2.75098 10.8462
       C2.75552 9.05395 2.78124 7.69302 2.92637 6.61358
       C3.09825 5.33517 3.42514 4.56445 3.9948 3.9948
       C4.56445 3.42514 5.33517 3.09825 6.61358 2.92637
       C7.91356 2.75159 9.62177 2.75 12 2.75
       C12.4142 2.75 12.75 2.41421 12.75 2
       C12.75 1.58579 12.4142 1.25 12 1.25
       Z
       M2.92637 17.3864
       C3.09825 18.6648 3.42514 19.4355 3.9948 20.0052
       C4.56445 20.5749 5.33517 20.9018 6.61358 21.0736
       C7.91356 21.2484 9.62177 21.25 12 21.25
       C14.3782 21.25 16.0864 21.2484 17.3864 21.0736
       C18.6648 20.9018 19.4355 20.5749 20.0052 20.0052
       C20.2487 19.7617 20.4479 19.4814 20.6096 19.1404
       C20.5707 19.1166 20.5334 19.089 20.4983 19.0574
       L17.2747 16.1562
       C16.4951 15.4545 15.334 15.3846 14.4758 15.9877
       L14.1776 16.1973
       C13.0843 16.9657 11.5968 16.8369 10.6519 15.8919
       L6.36216 11.6022
       C5.78515 11.0252 4.85958 10.9944 4.24546 11.5317
       L2.75038 12.8399
       C2.75296 14.7884 2.77289 16.2448 2.92637 17.3864
       Z"
        fill="#EFEFEF"
    />
</svg>