<svg
    width="24"
    height="24"
    viewBox="0 0 24 24"
    fill="none"
    xmlns="http://www.w3.org/2000/svg">
    <path
        d="M9 17.25C8.58579 17.25 8.25 17.5858 8.25 18
       C8.25 18.4142 8.58579 18.75 9 18.75
       H15C15.4142 18.75 15.75 18.4142 15.75 18
       C15.75 17.5858 15.4142 17.25 15 17.25
       H9
       Z"
        fill="white"
    />
    <path
        fill-rule="evenodd"
        clip-rule="evenodd"
        d="M12 1.25
       C11.2919 1.25 10.6485 1.45282 9.95055 1.79224
       C9.27585 2.12035 8.49642 2.60409 7.52286 3.20832
       L5.45628 4.4909
       C4.53509 5.06261 3.79744 5.5204 3.2289 5.95581
       C2.64015 6.40669 2.18795 6.86589 1.86131 7.46263
       C1.53535 8.05812 1.38857 8.69174 1.31819 9.4407
       C1.24999 10.1665 1.24999 11.0541 1.25 12.1672
       V13.7799C1.24999 15.6837 1.24998 17.1866 1.4027 18.3616
       C1.55937 19.567 1.88856 20.5401 2.63236 21.3094
       C3.37958 22.0824 4.33046 22.4277 5.50761 22.5914
       C6.64849 22.75 8.10556 22.75 9.94185 22.75
       H14.0581C15.8944 22.75 17.3515 22.75 18.4924 22.5914
       C19.6695 22.4277 20.6204 22.0824 21.3676 21.3094
       C22.1114 20.5401 22.4406 19.567 22.5973 18.3616
       C22.75 17.1866 22.75 15.6838 22.75 13.7799
       V12.1672
       C22.75 11.0541 22.75 10.1665 22.6818 9.4407
       C22.6114 8.69174 22.4646 8.05812 22.1387 7.46263
       C21.8121 6.86589 21.3599 6.40669 20.7711 5.95581
       C20.2026 5.5204 19.4649 5.06262 18.5437 4.49091
       L16.4771 3.20831
       C15.5036 2.60409 14.7241 2.12034 14.0494 1.79224
       C13.3515 1.45282 12.7081 1.25 12 1.25
       Z
       M8.27953 4.50412
       C9.29529 3.87371 10.0095 3.43153 10.6065 3.1412
       C11.1882 2.85833 11.6002 2.75 12 2.75
       C12.3998 2.75 12.8118 2.85833 13.3935 3.14119
       C13.9905 3.43153 14.7047 3.87371 15.7205 4.50412
       L17.7205 5.74537
       C18.6813 6.34169 19.3559 6.76135 19.8591 7.1467
       C20.3487 7.52164 20.6303 7.83106 20.8229 8.18285
       C21.0162 8.53589 21.129 8.94865 21.1884 9.58104
       C21.2492 10.2286 21.25 11.0458 21.25 12.2039
       V13.725
       C21.25 15.6959 21.2485 17.1012 21.1098 18.1683
       C20.9736 19.2163 20.717 19.8244 20.2892 20.2669
       C19.8649 20.7058 19.2871 20.9664 18.2858 21.1057
       C17.2602 21.2483 15.9075 21.25 14 21.25
       H10
       C8.09247 21.25 6.73983 21.2483 5.71422 21.1057
       C4.71286 20.9664 4.13514 20.7058 3.71079 20.2669
       C3.28301 19.8244 3.02642 19.2163 2.89019 18.1683
       C2.75149 17.1012 2.75 15.6959 2.75 13.725
       V12.2039
       C2.75 11.0458 2.75076 10.2286 2.81161 9.58104
       C2.87103 8.94865 2.98385 8.53589 3.17709 8.18285
       C3.36965 7.83106 3.65133 7.52164 4.14092 7.1467
       C4.6441 6.76135 5.31869 6.34169 6.27953 5.74537
       L8.27953 4.50412
       Z"
        fill="white"
    />
</svg>