<svg
  xmlns="http://www.w3.org/2000/svg"
  width="24"
  height="24"
  viewBox="0 0 24 24"
  fill="none">
  <path
    fill-rule="evenodd"
    clip-rule="evenodd"
    d="M16 6.75
    C15.3096 6.75 14.75 7.30964 14.75 8
    C14.75 8.69036 15.3096 9.25 16 9.25
    C16.6904 9.25 17.25 8.69036 17.25 8
    C17.25 7.30964 16.6904 6.75 16 6.75
    Z
    M13.25 8
    C13.25 6.48122 14.4812 5.25 16 5.25
    C17.5188 5.25 18.75 6.48122 18.75 8
    C18.75 9.51878 17.5188 10.75 16 10.75
    C14.4812 10.75 13.25 9.51878 13.25 8
    Z"
    fill="#697C89" />
  <path
    fill-rule="evenodd"
    clip-rule="evenodd"
    d="M11.9426 1.25
    H12.0574
    C14.3658 1.24999 16.1748 1.24998 17.5863 1.43975
    C19.031 1.63399 20.1711 2.03933 21.0659 2.93414
    C21.9607 3.82895 22.366 4.96897 22.5603 6.41371
    C22.75 7.82519 22.75 9.63423 22.75 11.9426V12.0574
    C22.75 14.3658 22.75 16.1748 22.5603 17.5863
    C22.366 19.031 21.9607 20.1711 21.0659 21.0659
    C20.1711 21.9607 19.031 22.366 17.5863 22.5603
    C16.1748 22.75 14.3658 22.75 12.0574 22.75
    H11.9426
    C9.63423 22.75 7.82519 22.75 6.41371 22.5603
    C4.96897 22.366 3.82895 21.9607 2.93414 21.0659
    C2.03933 20.1711 1.63399 19.031 1.43975 17.5863
    C1.24998 16.1748 1.24999 14.3658 1.25 12.0574
    V11.9426
    C1.24999 9.63423 1.24998 7.82519 1.43975 6.41371
    C1.63399 4.96897 2.03933 3.82895 2.93414 2.93414
    C3.82895 2.03933 4.96897 1.63399 6.41371 1.43975
    C7.82519 1.24998 9.63423 1.24999 11.9426 1.25
    Z
    M3.9948 20.0052
    C3.42514 19.4355 3.09825 18.6648 2.92637 17.3864
    C2.77289 16.2449 2.75296 14.7885 2.75038 12.8401
    L4.24546 11.5319
    C4.85958 10.9946 5.78515 11.0254 6.36216 11.6024
    L10.6519 15.8922
    C11.5968 16.8371 13.0843 16.9659 14.1776 16.1975
    L14.4758 15.988
    C15.334 15.3849 16.4951 15.4547 17.2747 16.1564
    L20.4983 19.0576
    C20.5334 19.0892 20.5706 19.1168 20.6095 19.1406
    C20.4478 19.4815 20.2487 19.7617 20.0052 20.0052
    C19.4355 20.5749 18.6648 20.9018 17.3864 21.0736
    C16.0864 21.2484 14.3782 21.25 12 21.25
    C9.62177 21.25 7.91356 21.2484 6.61358 21.0736
    C5.33517 20.9018 4.56445 20.5749 3.9948 20.0052
    Z
    M6.61358 2.92637
    C5.33517 3.09825 4.56445 3.42514 3.9948 3.9948
    C3.42514 4.56445 3.09825 5.33517 2.92637 6.61358
    C2.78124 7.69307 2.75552 9.05407 2.75098 10.8465
    L3.25771 10.4031
    C4.46613 9.34572 6.28741 9.40636 7.42282 10.5418
    L11.7125 14.8315
    C12.1421 15.261 12.8182 15.3196 13.3152 14.9703
    L13.6134 14.7607
    C15.0437 13.7555 16.9788 13.872 18.2782 15.0415
    L21.0522 17.5381
    C21.0596 17.4883 21.0667 17.4378 21.0736 17.3864
    C21.2484 16.0864 21.25 14.3782 21.25 12
    C21.25 9.62177 21.2484 7.91356 21.0736 6.61358
    C20.9018 5.33517 20.5749 4.56445 20.0052 3.9948
    C19.4355 3.42514 18.6648 3.09825 17.3864 2.92637
    C16.0864 2.75159 14.3782 2.75 12 2.75
    C9.62177 2.75 7.91356 2.75159 6.61358 2.92637
    Z"
    fill="#697C89" />
</svg>