<svg
    xmlns="http://www.w3.org/2000/svg"
    width="24"
    height="24"
    viewBox="0 0 24 24"
    fill="none">
    <path
        d="M9.76744 12
           C9.76744 12.411 9.43426 12.7442 9.02326 12.7442
           C8.61225 12.7442 8.27907 12.411 8.27907 12
           C8.27907 11.589 8.61225 11.2558 9.02326 11.2558
           C9.43426 11.2558 9.76744 11.589 9.76744 12
           Z"
        fill="#5C5C7B" />
    <path
        d="M12.7442 12
           C12.7442 12.411 12.411 12.7442 12 12.7442
           C11.589 12.7442 11.2558 12.411 11.2558 12
           C11.2558 11.589 11.589 11.2558 12 11.2558
           C12.411 11.2558 12.7442 11.589 12.7442 12
           Z"
        fill="#5C5C7B" />
    <path
        d="M15.7209 12
           C15.7209 12.411 15.3877 12.7442 14.9767 12.7442
           C14.5657 12.7442 14.2326 12.411 14.2326 12
           C14.2326 11.589 14.5657 11.2558 14.9767 11.2558
           C15.3877 11.2558 15.7209 11.589 15.7209 12
           Z"
        fill="#5C5C7B" />
    <path
        fill-rule="evenodd"
        clip-rule="evenodd"
        d="M20 12
           C20 7.58172 16.4183 4 12 4
           C7.58172 4 4 7.58172 4 12
           C4 13.2787 4.30043 14.4889 4.83507 15.5623
           C4.91485 15.7225 4.93178 15.886 4.89496 16.0236
           L4.45172 17.6802
           C4.1483 18.8142 5.18576 19.8517 6.31978 19.5483
           L7.97637 19.105
           C8.11396 19.0682 8.27751 19.0851 8.43769 19.1649
           C9.51109 19.6996 10.7213 20 12 20
           C16.4183 20 20 16.4183 20 12
           Z
           M12 5.11628
           C15.8018 5.11628 18.8837 8.19823 18.8837 12
           C18.8837 15.8018 15.8018 18.8837 12 18.8837
           C10.8978 18.8837 9.85764 18.6251 8.93537 18.1657
           C8.56521 17.9814 8.12259 17.9104 7.68784 18.0267
           L6.03125 18.4699
           C5.727 18.5513 5.44866 18.273 5.53006 17.9687
           L5.97331 16.3122
           C6.08963 15.8774 6.01864 15.4348 5.83427 15.0646
           C5.3749 14.1424 5.11628 13.1022 5.11628 12
           C5.11628 8.19823 8.19823 5.11628 12 5.11628
           Z"
        fill="#5C5C7B" />
</svg>