<svg
    xmlns="http://www.w3.org/2000/svg"
    width="24"
    height="24"
    viewBox="0 0 24 24"
    fill="none">
    <path
        fill-rule="evenodd"
        clip-rule="evenodd"
        d="M14.5556 4.89609
           C14.567 4.90625 14.5784 4.91643 14.5899 4.92664
           L18.1581 8.09832
           C18.8238 8.69009 19.3758 9.18066 19.7547 9.62599
           C20.153 10.094 20.4366 10.5979 20.4366 11.2215
           C20.4366 11.8451 20.153 12.349 19.7547 12.817
           C19.3758 13.2623 18.8238 13.7529 18.1581 14.3447
           L14.5899 17.5164
           C14.5784 17.5266 14.567 17.5368 14.5555 17.5469
           C14.2671 17.8034 13.998 18.0427 13.7654 18.1962
           C13.5371 18.347 13.1218 18.566 12.6567 18.3571
           C12.1915 18.1482 12.0793 17.6924 12.0403 17.4215
           C12.0006 17.1457 12.0006 16.7855 12.0007 16.3996
           C12.0007 16.3843 12.0007 16.369 12.0007 16.3536
           V14.9593
           C10.7103 15.0482 9.40279 15.3909 8.25905 15.9482
           C6.91409 16.6035 5.83997 17.5328 5.25704 18.6431
           C5.11445 18.9147 4.80495 19.054 4.50713 18.9806
           C4.2093 18.9071 4 18.64 4 18.3332
           C4 14.1364 5.22799 11.4038 6.98381 9.72381
           C8.51425 8.25947 10.3795 7.65859 12.0007 7.53284
           V6.08937
           C12.0007 6.07401 12.0007 6.05868 12.0007 6.0434
           C12.0006 5.65747 12.0006 5.29728 12.0403 5.02148
           C12.0793 4.75064 12.1915 4.29479 12.6567 4.08589
           C13.1218 3.877 13.5371 4.09601 13.7654 4.24678
           C13.998 4.40031 14.2671 4.63965 14.5556 4.89609
           Z
           M13.3369 5.60055
           C13.4374 5.68668 13.5574 5.79292 13.704 5.92327
           L17.2352 9.06213
           C17.9474 9.69515 18.4279 10.1243 18.7392 10.4902
           C19.0381 10.8415 19.1031 11.0466 19.1031 11.2215
           C19.1031 11.3964 19.0381 11.6015 18.7392 11.9528
           C18.4279 12.3187 17.9474 12.7478 17.2352 13.3809
           L13.704 16.5197
           C13.5574 16.6501 13.4374 16.7563 13.3369 16.8425
           C13.3345 16.7101 13.3341 16.5498 13.3341 16.3536
           V14.2694
           C13.3341 13.9012 13.0356 13.6027 12.6674 13.6027
           C10.9672 13.6027 9.2004 14.0062 7.67496 14.7495
           C6.85816 15.1475 6.09778 15.6495 5.4525 16.2502
           C5.78032 13.5415 6.74905 11.7939 7.90566 10.6873
           C9.34583 9.30931 11.1654 8.84035 12.6674 8.84035
           C13.0356 8.84035 13.3341 8.54184 13.3341 8.17362
           V6.08937
           C13.3341 5.89318 13.3345 5.7329 13.3369 5.60055
           Z"
        fill="#5C5C7B" />
</svg>