<svg
    width="24"
    height="24"
    viewBox="0 0 24 24"
    fill="none"
    xmlns="http://www.w3.org/2000/svg">
    <path
        fill-rule="evenodd"
        clip-rule="evenodd"
        d="M11.5 2.75C6.66751 2.75 2.75 6.66751 2.75 11.5
       C2.75 16.3325 6.66751 20.25 11.5 20.25
       C16.3325 20.25 20.25 16.3325 20.25 11.5
       C20.25 6.66751 16.3325 2.75 11.5 2.75Z
       M1.25 11.5
       C1.25 5.83908 5.83908 1.25 11.5 1.25
       C17.1609 1.25 21.75 5.83908 21.75 11.5
       C21.75 14.0605 20.8111 16.4017 19.2589 18.1982
       L22.5303 21.4697
       C22.8232 21.7626 22.8232 22.2374 22.5303 22.5303
       C22.2374 22.8232 21.7626 22.8232 21.4697 22.5303
       L18.1982 19.2589
       C16.4017 20.8111 14.0605 21.75 11.5 21.75
       C5.83908 21.75 1.25 17.1609 1.25 11.5
       Z"
        fill="#EFEFEF"
    />
</svg>